<svg xmlns="http://www.w3.org/2000/svg" version="1.0" viewBox="0 0 375 86.25"><path fill="#fff" d="M33.463 68.062c-3.668 0-7.074-.668-10.219-2-3.148-1.332-5.867-3.156-8.156-5.468-2.281-2.313-4.07-5.04-5.36-8.188-1.28-3.144-1.921-6.504-1.921-10.078v-.156c0-3.57.64-6.914 1.921-10.031 1.29-3.125 3.079-5.864 5.36-8.22 2.289-2.362 5.031-4.222 8.219-5.577 3.195-1.364 6.726-2.047 10.593-2.047 2.332 0 4.461.195 6.39.578 1.938.375 3.692.898 5.267 1.562 1.57.668 3.023 1.48 4.359 2.438 1.332.95 2.57 1.996 3.719 3.14l-7.016 8.079c-1.95-1.758-3.937-3.14-5.969-4.14-2.023-1-4.297-1.5-6.828-1.5-2.094 0-4.039.405-5.828 1.218a13.683 13.683 0 0 0-4.61 3.36c-1.28 1.429-2.28 3.085-3 4.968-.718 1.875-1.077 3.887-1.077 6.031v.14c0 2.15.359 4.173 1.078 6.079.718 1.906 1.707 3.578 2.968 5.016 1.258 1.43 2.782 2.558 4.563 3.39 1.789.836 3.758 1.25 5.906 1.25 2.863 0 5.285-.52 7.266-1.562 1.976-1.051 3.941-2.485 5.89-4.297l7.016 7.078a36.217 36.217 0 0 1-4.016 3.719 23.778 23.778 0 0 1-4.53 2.828c-1.65.781-3.45 1.375-5.407 1.781-1.95.406-4.14.61-6.578.61ZM61.851 15.016H73.29v9.64H61.851Zm.282 13.859h10.875v38.328H62.133ZM83.224 28.875H94.1v5.437a22.222 22.222 0 0 1 2.032-2.328 13.69 13.69 0 0 1 2.468-1.953 12.483 12.483 0 0 1 3-1.36c1.094-.331 2.332-.5 3.72-.5 4.144 0 7.347 1.266 9.609 3.798 2.27 2.523 3.406 5.996 3.406 10.422v24.812h-10.875V45.828c0-2.57-.574-4.516-1.719-5.828-1.137-1.313-2.758-1.969-4.86-1.969-2.093 0-3.75.656-4.968 1.969-1.211 1.312-1.813 3.258-1.813 5.828v21.375H83.224ZM145.922 68.062c-2.855 0-5.511-.476-7.968-1.421-2.45-.957-4.57-2.317-6.36-4.079-1.793-1.77-3.187-3.859-4.187-6.265-1-2.406-1.5-5.086-1.5-8.047v-.14c0-2.72.46-5.29 1.39-7.72.938-2.425 2.239-4.546 3.907-6.359 1.664-1.812 3.656-3.238 5.968-4.281 2.313-1.05 4.875-1.578 7.688-1.578 3.187 0 5.945.574 8.281 1.719 2.344 1.136 4.285 2.671 5.828 4.609 1.551 1.93 2.696 4.14 3.438 6.64.738 2.5 1.11 5.11 1.11 7.829 0 .43-.013.883-.032 1.36-.024.48-.059.98-.11 1.5h-26.671c.53 2.48 1.613 4.355 3.25 5.624 1.644 1.262 3.687 1.89 6.125 1.89 1.812 0 3.43-.304 4.859-.921 1.426-.625 2.906-1.63 4.438-3.016l6.218 5.5a19.426 19.426 0 0 1-6.578 5.266c-2.574 1.258-5.605 1.89-9.094 1.89Zm7.016-23.03c-.336-2.427-1.195-4.391-2.578-5.891-1.387-1.5-3.219-2.25-5.5-2.25-2.293 0-4.14.742-5.547 2.218-1.406 1.47-2.324 3.446-2.75 5.922ZM171.593 28.875h10.875v5.516a17.236 17.236 0 0 1 4.812-4.47c1.883-1.163 4.258-1.75 7.125-1.75 2.239 0 4.407.43 6.5 1.282 2.102.856 3.961 2.133 5.579 3.828 1.625 1.688 2.921 3.762 3.89 6.219.977 2.45 1.469 5.273 1.469 8.469v.14c0 3.2-.492 6.028-1.469 8.485-.969 2.449-2.258 4.523-3.86 6.218-1.593 1.688-3.437 2.965-5.53 3.829a17.309 17.309 0 0 1-6.579 1.28c-2.906 0-5.304-.573-7.187-1.718-1.887-1.144-3.469-2.476-4.75-4v16.438h-10.875Zm20.016 29.812c1.289 0 2.492-.25 3.609-.75a8.916 8.916 0 0 0 2.969-2.14c.863-.926 1.547-2.031 2.047-3.313.5-1.289.75-2.75.75-4.375v-.14c0-1.57-.25-3.016-.75-4.328-.5-1.313-1.184-2.43-2.047-3.36a8.971 8.971 0 0 0-2.97-2.14 8.733 8.733 0 0 0-3.608-.75c-1.282 0-2.485.25-3.61.75a8.637 8.637 0 0 0-2.922 2.14c-.836.93-1.5 2.047-2 3.36-.5 1.312-.75 2.757-.75 4.328v.14c0 1.575.25 3.016.75 4.328.5 1.313 1.164 2.434 2 3.36a8.586 8.586 0 0 0 2.922 2.14c1.125.5 2.328.75 3.61.75ZM238.009 68.062c-2.856 0-5.512-.476-7.97-1.421-2.448-.957-4.57-2.317-6.358-4.079-1.793-1.77-3.188-3.859-4.188-6.265-1-2.406-1.5-5.086-1.5-8.047v-.14c0-2.72.461-5.29 1.39-7.72.938-2.425 2.239-4.546 3.907-6.359 1.664-1.812 3.656-3.238 5.969-4.281 2.312-1.05 4.875-1.578 7.687-1.578 3.188 0 5.945.574 8.281 1.719 2.344 1.136 4.286 2.671 5.829 4.609 1.55 1.93 2.695 4.14 3.437 6.64.738 2.5 1.11 5.11 1.11 7.829 0 .43-.012.883-.032 1.36-.023.48-.058.98-.11 1.5H228.79c.531 2.48 1.613 4.355 3.25 5.624 1.644 1.262 3.687 1.89 6.125 1.89 1.812 0 3.43-.304 4.86-.921 1.425-.625 2.906-1.63 4.437-3.016l6.219 5.5a19.426 19.426 0 0 1-6.579 5.266c-2.574 1.258-5.605 1.89-9.093 1.89Zm7.015-23.03c-.336-2.427-1.195-4.391-2.578-5.891-1.387-1.5-3.219-2.25-5.5-2.25-2.293 0-4.14.742-5.547 2.218-1.406 1.47-2.324 3.446-2.75 5.922ZM279.414 67.922a17.2 17.2 0 0 1-6.516-1.281c-2.094-.864-3.953-2.141-5.578-3.829-1.617-1.695-2.914-3.77-3.89-6.218-.981-2.457-1.47-5.285-1.47-8.485v-.14c0-3.196.489-6.02 1.47-8.469.976-2.457 2.265-4.531 3.859-6.219 1.601-1.695 3.453-2.972 5.546-3.828a17.294 17.294 0 0 1 6.579-1.281c2.906 0 5.3.574 7.187 1.719 1.883 1.136 3.469 2.468 4.75 4V15.016h10.875v52.187h-10.875v-5.5a17.184 17.184 0 0 1-4.828 4.469c-1.887 1.164-4.258 1.75-7.11 1.75Zm2.78-9.235c1.29 0 2.493-.25 3.61-.75a8.606 8.606 0 0 0 2.938-2.14c.832-.926 1.5-2.047 2-3.36.5-1.312.75-2.753.75-4.328v-.14c0-1.57-.25-3.016-.75-4.328-.5-1.313-1.168-2.43-2-3.36a8.658 8.658 0 0 0-2.938-2.14 8.733 8.733 0 0 0-3.61-.75c-1.28 0-2.484.25-3.609.75a9.133 9.133 0 0 0-2.968 2.14c-.856.93-1.532 2.04-2.032 3.328-.5 1.282-.75 2.735-.75 4.36v.14c0 1.575.25 3.016.75 4.328.5 1.313 1.176 2.434 2.032 3.36a9.076 9.076 0 0 0 2.968 2.14c1.125.5 2.329.75 3.61.75ZM312.157 15.016h11.438v9.64h-11.438Zm.282 13.859h10.875v38.328h-10.875ZM344.405 67.922c-1.812 0-3.523-.25-5.125-.75-1.593-.5-2.992-1.25-4.187-2.25a10.9 10.9 0 0 1-2.813-3.688c-.687-1.457-1.03-3.14-1.03-5.047v-.14c0-2.094.378-3.899 1.14-5.422a10.358 10.358 0 0 1 3.172-3.797c1.363-1 2.988-1.75 4.875-2.25 1.882-.5 3.968-.75 6.25-.75 1.957 0 3.66.149 5.109.438 1.457.28 2.879.656 4.266 1.125v-.641c0-2.29-.696-4.031-2.079-5.219-1.386-1.187-3.437-1.781-6.156-1.781-2.094 0-3.945.18-5.547.531-1.593.356-3.273.867-5.03 1.531l-2.72-8.28a43.248 43.248 0 0 1 6.578-2.22c2.29-.57 5.055-.859 8.297-.859 3 0 5.563.371 7.688 1.11 2.125.742 3.875 1.796 5.25 3.171 1.437 1.438 2.488 3.196 3.156 5.266.664 2.074 1 4.398 1 6.969v22.234h-10.516v-4.14a15.221 15.221 0 0 1-4.796 3.53c-1.856.884-4.118 1.329-6.782 1.329Zm3.282-7.516c2.57 0 4.632-.617 6.187-1.86 1.55-1.237 2.328-2.859 2.328-4.859v-1.921a16.314 16.314 0 0 0-3.187-1.047 17.368 17.368 0 0 0-3.75-.39c-2.336 0-4.172.452-5.516 1.358-1.336.907-2 2.22-2 3.938v.14c0 1.481.547 2.626 1.64 3.438 1.102.805 2.536 1.203 4.298 1.203Zm0 0"/></svg>